<?xml version="1.0" standalone="no"?>
<!DOCTYPE svg PUBLIC "-//W3C//DTD SVG 20010904//EN"
 "http://www.w3.org/TR/2001/REC-SVG-20010904/DTD/svg10.dtd">
<svg version="1.0" xmlns="http://www.w3.org/2000/svg"
 width="136.000000pt" height="136.000000pt" viewBox="0 0 136.000000 136.000000"
 preserveAspectRatio="xMidYMid meet">
<metadata>
Created by potrace 1.14, written by Peter Selinger 2001-2017
</metadata>
<g transform="translate(0.000000,136.000000) scale(0.100000,-0.100000)"
fill="#000000" stroke="none">
<path d="M710 1345 c1 -6 7 -37 15 -70 8 -33 15 -78 15 -100 0 -30 8 -49 31
-75 34 -39 112 -138 123 -157 3 -7 -29 -77 -75 -158 -44 -81 -79 -149 -77
-151 6 -5 380 135 392 147 6 5 2 18 -11 31 -11 13 -105 136 -208 273 -208 277
-205 273 -205 260z"/>
<path d="M577 1243 c-36 -54 -102 -150 -146 -213 -44 -63 -112 -162 -151 -219
l-72 -104 44 36 c34 28 67 42 158 66 159 42 166 43 223 21 28 -11 52 -18 53
-17 2 1 -12 63 -31 137 -21 83 -32 149 -29 170 18 135 27 220 22 220 -3 0 -35
-44 -71 -97z"/>
<path d="M421 666 c-107 -44 -195 -85 -194 -89 1 -7 216 -272 233 -287 3 -3
37 -43 75 -90 70 -84 89 -108 139 -165 l26 -30 -16 55 c-9 30 -18 58 -20 61
-1 3 -6 30 -9 59 -6 49 -12 59 -82 134 -41 45 -80 90 -85 102 -8 17 2 47 55
157 61 127 83 179 75 176 -2 -1 -91 -38 -197 -83z"/>
<path d="M1110 689 c-20 -28 -45 -40 -187 -88 l-121 -42 -63 15 c-35 8 -65 14
-66 13 0 -1 23 -61 53 -133 l53 -131 2 -131 c0 -73 2 -132 4 -132 2 0 38 64
81 143 42 78 89 165 104 192 15 28 44 82 65 120 20 39 53 98 72 133 33 58 35
86 3 41z"/>
</g>
</svg>
